<?xml version="1.0" encoding="utf-8"?>
<!-- Generator: Adobe Illustrator 22.1.0, SVG Export Plug-In . SVG Version: 6.00 Build 0)  -->
<svg version="1.1" id="Layer_1" xmlns="http://www.w3.org/2000/svg" xmlns:xlink="http://www.w3.org/1999/xlink" x="0px" y="0px"
	 viewBox="0 0 1024 1024" style="enable-background:new 0 0 1024 1024;" xml:space="preserve">
<style type="text/css">
	.st1{fill:#226EB3;}
	.st2{fill:none;stroke:#000000;stroke-width:60;stroke-linecap:round;stroke-linejoin:round;stroke-miterlimit:10;}
	.st3{fill:#E42528;}
</style>
<g class="st0">
	<path class="st1" d="M842,1022H742c-38.6,0-70-31.4-70-70v-41c0-5.5-4.5-10-10-10H362c-5.5,0-10,4.5-10,10v41c0,38.6-31.4,70-70,70
		H182c-38.6,0-70-31.4-70-70v-54.2C49.2,884,2,827.9,2,761V142C2,64.8,64.8,2,142,2h740c77.2,0,140,62.8,140,140v619
		c0,66.9-47.2,123-110,136.8V952C912,990.6,880.6,1022,842,1022z M362,841h300c38.6,0,70,31.4,70,70v41c0,5.5,4.5,10,10,10h100
		c5.5,0,10-4.5,10-10v-81c0-16.6,13.4-30,30-30c44.1,0,80-35.9,80-80V142c0-44.1-35.9-80-80-80H142c-44.1,0-80,35.9-80,80v619
		c0,44.1,35.9,80,80,80c16.6,0,30,13.4,30,30v81c0,5.5,4.5,10,10,10h100c5.5,0,10-4.5,10-10v-41C292,872.4,323.4,841,362,841z"/>
</g>
<g class="st0">
	<path class="st2" d="M438.3,313.6"/>
</g>
<g class="st0">
	<path class="st3" d="M321.5,630.5c-6.1,0-12.3-1.9-17.6-5.7c-13.4-9.7-16.4-28.5-6.6-41.9l97.4-134c9.7-13.4,28.5-16.4,41.9-6.6
		c13.4,9.7,16.4,28.5,6.6,41.9l-97.4,134C339.9,626.2,330.7,630.5,321.5,630.5z"/>
</g>
<g class="st0">
	<path class="st3" d="M516.4,630.5c-9.3,0-18.4-4.3-24.3-12.4l-97.4-134c-9.7-13.4-6.8-32.2,6.6-41.9c13.4-9.7,32.2-6.8,41.9,6.6
		l97.4,134c9.7,13.4,6.8,32.2-6.6,41.9C528.7,628.6,522.5,630.5,516.4,630.5z"/>
</g>
<g class="st0">
	<path class="st3" d="M418.9,496.5c-16.6,0-30-13.4-30-30V302.1c0-16.6,13.4-30,30-30s30,13.4,30,30v164.4
		C448.9,483.1,435.5,496.5,418.9,496.5z"/>
</g>
<g class="st0">
	<path class="st3" d="M418.9,496.6c-12.7,0-24.4-8.1-28.5-20.8c-5.1-15.8,3.6-32.7,19.3-37.8L567,387.3c15.8-5.1,32.7,3.6,37.8,19.3
		c5.1,15.8-3.6,32.7-19.3,37.8l-157.3,50.7C425.1,496.1,422,496.6,418.9,496.6z"/>
</g>
<g class="st0">
	<path class="st3" d="M418.9,496.6c-3.1,0-6.2-0.5-9.2-1.5l-157.3-50.7c-15.8-5.1-24.4-22-19.3-37.8c5.1-15.8,22-24.4,37.8-19.3
		L428.1,438c15.8,5.1,24.4,22,19.3,37.8C443.4,488.5,431.6,496.6,418.9,496.6z"/>
</g>
<g class="st0">
	<path class="st1" d="M761.7,629.8c-16.6,0-30-13.4-30-30v-297c0-16.6,13.4-30,30-30s30,13.4,30,30v297
		C791.7,616.4,778.3,629.8,761.7,629.8z"/>
</g>
</svg>
